<?xml version="1.0" encoding="utf-8"?>
<!-- Generator: Adobe Illustrator 14.0.0, SVG Export Plug-In . SVG Version: 6.00 Build 43363)  -->
<!DOCTYPE svg PUBLIC "-//W3C//DTD SVG 1.1//EN" "http://www.w3.org/Graphics/SVG/1.1/DTD/svg11.dtd">
<svg version="1.1" id="Layer_7" xmlns="http://www.w3.org/2000/svg" xmlns:xlink="http://www.w3.org/1999/xlink" x="0px" y="0px"
	 width="100px" height="100px" viewBox="0 0 100 100" enable-background="new 0 0 100 100" xml:space="preserve">
<g>
	<g>
		<path fill="#FFFFFF" d="M54.13,87.089h-6.744c-0.404,0-0.768-0.243-0.923-0.615l-4.126-9.868
			c-2.148-0.732-4.028-1.522-5.595-2.353l-9.207,3.815c-0.369,0.151-0.794,0.071-1.08-0.207l-4.815-4.68
			c-0.294-0.285-0.384-0.721-0.227-1.1l3.814-9.21c-1.118-2.09-1.908-3.96-2.398-5.678l-9.675-3.896
			c-0.378-0.152-0.626-0.52-0.626-0.928v-6.745c0-0.408,0.248-0.775,0.626-0.928l9.857-3.981c0.729-2.146,1.52-4.025,2.353-5.595
			l-3.812-9.207c-0.153-0.369-0.072-0.793,0.207-1.08l4.677-4.817c0.285-0.294,0.721-0.384,1.1-0.227l9.214,3.817
			c2.223-1.104,4.048-1.824,5.884-2.321l3.697-8.54c0.158-0.366,0.519-0.603,0.917-0.603h6.743c0.398,0,0.759,0.237,0.918,0.603
			l3.632,8.385c0.012,0.003,0.023,0.007,0.035,0.011c2.275,0.758,4.267,1.586,5.92,2.462l9.208-3.814
			c0.374-0.154,0.804-0.069,1.09,0.217l4.815,4.817c0.286,0.286,0.372,0.716,0.217,1.089l-3.814,9.214
			c1.09,2.195,1.829,4.071,2.319,5.884l8.54,3.695c0.365,0.159,0.603,0.519,0.603,0.918v6.745c0,0.398-0.237,0.76-0.603,0.918
			l-8.385,3.629c-0.004,0.012-0.007,0.023-0.011,0.035c-0.757,2.275-1.585,4.266-2.462,5.921l3.812,9.209
			c0.152,0.369,0.071,0.793-0.207,1.08l-4.679,4.815c-0.284,0.294-0.72,0.385-1.1,0.227l-9.213-3.815
			c-1.818,0.908-3.68,1.827-5.671,2.398l-3.898,9.676C54.905,86.841,54.538,87.089,54.13,87.089L54.13,87.089z M48.052,85.089h5.403
			l3.739-9.282c0.05-0.123,0.123-0.235,0.217-0.329l0.273-0.276c0.125-0.127,0.281-0.217,0.453-0.263
			c1.959-0.523,3.782-1.434,5.712-2.396l0.29-0.146c0.259-0.131,0.562-0.142,0.831-0.03l9.008,3.73l3.747-3.857l-3.737-9.027
			c-0.11-0.268-0.101-0.569,0.028-0.829l0.137-0.274c0.797-1.479,1.544-3.231,2.237-5.238c-0.123-0.207-0.168-0.455-0.122-0.697
			c0.062-0.325,0.281-0.598,0.585-0.729l8.619-3.73v-5.431l-8.619-3.729c-0.251-0.109-0.447-0.317-0.542-0.574
			c-0.085-0.233-0.08-0.489,0.012-0.718c-0.468-1.65-1.145-3.325-2.169-5.373l-0.137-0.273c-0.13-0.259-0.141-0.562-0.029-0.83
			l3.733-9.019l-3.87-3.872l-9.019,3.736c-0.27,0.111-0.572,0.101-0.831-0.03l-0.273-0.137c-1.476-0.794-3.229-1.542-5.236-2.235
			c-0.207,0.122-0.454,0.167-0.695,0.121c-0.325-0.062-0.599-0.281-0.73-0.585l-3.732-8.619h-5.43l-3.731,8.619
			c-0.108,0.251-0.316,0.447-0.573,0.542c-0.234,0.084-0.49,0.081-0.718-0.011c-1.65,0.469-3.325,1.146-5.373,2.17l-0.277,0.138
			c-0.26,0.129-0.561,0.139-0.829,0.029l-9.007-3.732l-3.747,3.858l3.739,9.028c0.111,0.27,0.1,0.574-0.031,0.834l-0.138,0.273
			c-0.863,1.601-1.673,3.539-2.421,5.784c-0.07,0.211-0.209,0.393-0.395,0.517l-0.414,0.275c-0.057,0.038-0.117,0.07-0.181,0.095
			L14.528,46.3v5.395l9.282,3.738c0.125,0.051,0.238,0.125,0.333,0.22l0.276,0.275c0.125,0.125,0.214,0.279,0.259,0.449
			c0.45,1.683,1.233,3.548,2.393,5.703l0.151,0.304c0.128,0.259,0.139,0.56,0.028,0.827l-3.73,9.009l3.857,3.748l9.027-3.741
			c0.268-0.11,0.573-0.1,0.833,0.03l0.275,0.139c1.599,0.861,3.537,1.672,5.784,2.422c0.211,0.07,0.393,0.209,0.516,0.394
			l0.276,0.414c0.036,0.054,0.066,0.11,0.091,0.17L48.052,85.089L48.052,85.089z"/>
	</g>
	<g>
		<path fill="#FFFFFF" d="M50.689,62.04c-3.863,0-7.553-1.733-10.123-4.756c-2.515-2.96-3.575-7.029-2.835-10.884
			c1.058-5.284,5.201-9.417,10.31-10.292c0.791-0.148,1.617-0.225,2.44-0.225c3.93,0,7.743,1.756,10.197,4.697
			c2.509,2.954,3.568,7.022,2.828,10.875c-1.05,5.251-5.146,9.366-10.211,10.278C52.458,62.04,51.56,62.04,50.689,62.04
			L50.689,62.04z M50.482,37.883c-0.7,0-1.402,0.065-2.087,0.193c-4.315,0.739-7.806,4.238-8.701,8.708
			c-0.625,3.258,0.27,6.703,2.396,9.205c2.189,2.574,5.323,4.051,8.599,4.051c0.75,0,1.459,0,1.97-0.203
			c0.065-0.026,0.133-0.045,0.201-0.057c4.301-0.738,7.79-4.237,8.684-8.709c0.626-3.257-0.269-6.7-2.395-9.203
			C57.064,39.371,53.826,37.883,50.482,37.883L50.482,37.883z"/>
	</g>
</g>
</svg>
