<?xml version="1.0" encoding="utf-8"?>
<!-- Generator: Adobe Illustrator 14.0.0, SVG Export Plug-In . SVG Version: 6.00 Build 43363)  -->
<!DOCTYPE svg PUBLIC "-//W3C//DTD SVG 1.1//EN" "http://www.w3.org/Graphics/SVG/1.1/DTD/svg11.dtd">
<svg version="1.1" id="Layer_5" xmlns="http://www.w3.org/2000/svg" xmlns:xlink="http://www.w3.org/1999/xlink" x="0px" y="0px"
	 width="100px" height="100px" viewBox="0 0 100 100" enable-background="new 0 0 100 100" xml:space="preserve">
<g>
	<path fill="#FFFFFF" d="M79.874,83.524H55.308c-0.553,0-1-0.447-1-1V62.598h-8.918v19.927c0,0.553-0.448,1-1,1H20.125
		c-0.552,0-1-0.447-1-1V58.047h-8.403c-0.402,0-0.766-0.241-0.922-0.612c-0.156-0.371-0.075-0.799,0.207-1.087l39.43-40.337
		c0.188-0.192,0.446-0.301,0.715-0.301c0.001,0,0.003,0,0.005,0c0.271,0.001,0.529,0.112,0.717,0.308l12.229,12.761v-4.184
		c0-0.552,0.447-1,1-1h11.223c0.553,0,1,0.448,1,1v17.481l13.658,13.659c0.286,0.286,0.372,0.716,0.217,1.09
		c-0.154,0.374-0.52,0.617-0.924,0.617h-8.403v25.083C80.874,83.077,80.427,83.524,79.874,83.524L79.874,83.524z M56.308,81.524
		h22.566V56.441c0-0.553,0.447-1,1-1h6.989L74.619,43.197c-0.188-0.188-0.293-0.442-0.293-0.707V25.595h-9.223v5.673
		c0,0.408-0.248,0.776-0.627,0.928c-0.378,0.151-0.812,0.059-1.095-0.236L50.145,18.147L13.098,56.047h7.027c0.552,0,1,0.447,1,1
		v24.478h22.264V61.598c0-0.553,0.448-1,1-1h10.918c0.553,0,1,0.447,1,1V81.524L56.308,81.524z"/>
</g>
</svg>
