<?xml version="1.0" encoding="utf-8"?>
<!-- Generator: Adobe Illustrator 14.0.0, SVG Export Plug-In . SVG Version: 6.00 Build 43363)  -->
<!DOCTYPE svg PUBLIC "-//W3C//DTD SVG 1.1//EN" "http://www.w3.org/Graphics/SVG/1.1/DTD/svg11.dtd">
<svg version="1.1" id="Layer_1" xmlns="http://www.w3.org/2000/svg" xmlns:xlink="http://www.w3.org/1999/xlink" x="0px" y="0px"
	 width="100px" height="100px" viewBox="0 0 100 100" enable-background="new 0 0 100 100" xml:space="preserve">
<g id="XMLID_40_">
	<g id="XMLID_43_">
		<g id="XMLID_92_">
			<g>
				<g id="XMLID_93_">
					<g>
						<g>
							<path fill="#FFFFFF" d="M67.272,88.657H33.596c-1.78,0-3.175-1.156-3.175-2.632v-2.588c0-1.478,1.395-2.635,3.175-2.635
								h12.896v-8.588c-10.723-1.382-18.394-7.993-18.394-16.011V39.273c0-0.663,0.538-1.2,1.2-1.2h4.694c0.663,0,1.2,0.538,1.2,1.2
								v16.933c0,4.972,7.082,9.172,15.464,9.172c0.312-0.003,0.626,0.001,0.94-0.023c8.017-0.296,14.497-4.397,14.497-9.147V39.273
								c0-0.663,0.537-1.2,1.2-1.2h4.688c0.663,0,1.2,0.538,1.2,1.2v16.931c0,8.203-7.854,14.842-18.834,16.077v8.521h12.924
								c1.779,0,3.174,1.157,3.174,2.635v2.588C70.446,87.501,69.052,88.657,67.272,88.657L67.272,88.657z M33.596,83.203
								c-0.457,0-0.742,0.2-0.784,0.283l0.009,2.539c0.033,0.032,0.318,0.231,0.775,0.231h33.677c0.456,0,0.741-0.199,0.783-0.282
								l-0.01-2.537c-0.032-0.035-0.317-0.234-0.773-0.234H53.148c-0.663,0-1.2-0.537-1.2-1.2V71.19
								c0-0.627,0.482-1.147,1.107-1.196c10.271-0.801,17.727-6.601,17.727-13.79V40.473h-2.288v15.734
								c0,6.127-7.361,11.197-16.759,11.543c-0.328,0.027-0.704,0.028-1.079,0.028c-9.851,0-17.865-5.191-17.865-11.572V40.473
								h-2.293v15.731c0,7.02,7.278,12.8,17.306,13.743c0.617,0.058,1.088,0.575,1.088,1.194v10.861c0,0.663-0.538,1.2-1.2,1.2
								H33.596L33.596,83.203z"/>
						</g>
						<g>
							<path fill="#FFFFFF" d="M50.654,63.897c-7.438,0-13.963-3.595-13.963-7.693V22.877c0-4.167,6.395-7.688,13.963-7.688
								c7.556,0,13.938,3.521,13.938,7.688v1.138c0,0.663-0.537,1.2-1.2,1.2H51.469c-0.423,0-0.686,0.137-0.774,0.214v2.36
								c0.017-0.022,0.292,0.161,0.774,0.161h11.924c0.663,0,1.2,0.538,1.2,1.2v2.961c0,0.663-0.537,1.2-1.2,1.2H51.469
								c-0.483,0-0.752,0.178-0.795,0.242l0.02,2.301c0.089,0.077,0.353,0.214,0.775,0.214h11.924c0.663,0,1.2,0.538,1.2,1.2v2.966
								c0,0.663-0.537,1.2-1.2,1.2H51.469c-0.483,0-0.753,0.177-0.796,0.241l0.021,2.333c0.018-0.023,0.296,0.158,0.774,0.158
								h11.924c0.663,0,1.2,0.538,1.2,1.2v10.835C64.593,60.303,58.079,63.897,50.654,63.897L50.654,63.897z M50.654,17.59
								c-6.951,0-11.563,3.183-11.563,5.288v33.327c0,2.107,4.612,5.293,11.563,5.293c6.693,0,11.538-3.161,11.538-5.293v-9.635
								H51.469c-1.81,0-3.175-1.1-3.175-2.558v-2.422c0-1.455,1.365-2.553,3.175-2.553h10.724v-0.566H51.469
								c-1.78,0-3.175-1.111-3.175-2.53V33.47c0-1.458,1.365-2.558,3.175-2.558h10.724v-0.561H51.469
								c-1.81,0-3.175-1.101-3.175-2.561v-2.442c0-1.42,1.395-2.533,3.175-2.533h10.723C62.103,20.71,57.522,17.59,50.654,17.59
								L50.654,17.59z"/>
						</g>
					</g>
				</g>
			</g>
		</g>
	</g>
</g>
</svg>
