<?xml version="1.0" encoding="utf-8"?>
<!-- Generator: Adobe Illustrator 14.0.0, SVG Export Plug-In . SVG Version: 6.00 Build 43363)  -->
<!DOCTYPE svg PUBLIC "-//W3C//DTD SVG 1.1//EN" "http://www.w3.org/Graphics/SVG/1.1/DTD/svg11.dtd">
<svg version="1.1" id="Layer_2" xmlns="http://www.w3.org/2000/svg" xmlns:xlink="http://www.w3.org/1999/xlink" x="0px" y="0px"
	 width="100px" height="100px" viewBox="0 0 100 100" enable-background="new 0 0 100 100" xml:space="preserve">
<g>
	<path fill="#FFFFFF" d="M50.001,56.684c-11.223,0-20.353-9.13-20.353-20.352c0-11.222,9.13-20.352,20.353-20.352
		c11.222,0,20.352,9.13,20.352,20.352C70.354,47.554,61.224,56.684,50.001,56.684L50.001,56.684z M50.001,17.98
		c-10.12,0-18.353,8.233-18.353,18.352s8.233,18.352,18.353,18.352s18.352-8.232,18.352-18.352S60.121,17.98,50.001,17.98
		L50.001,17.98z"/>
</g>
<g>
	<path fill="#FFFFFF" d="M84.403,89.654H15.596c-0.552,0-1-0.447-1-1v-5.017c0-12.408,10.095-22.503,22.503-22.503h25.802
		c12.407,0,22.502,10.095,22.502,22.503v5.017C85.403,89.207,84.956,89.654,84.403,89.654L84.403,89.654z M16.596,87.654h66.808
		v-4.017c0-11.306-9.197-20.503-20.502-20.503H37.099c-11.306,0-20.503,9.197-20.503,20.503V87.654L16.596,87.654z"/>
</g>
</svg>
