<?xml version="1.0" encoding="utf-8"?>
<!-- Generator: Adobe Illustrator 14.0.0, SVG Export Plug-In . SVG Version: 6.00 Build 43363)  -->
<!DOCTYPE svg PUBLIC "-//W3C//DTD SVG 1.1//EN" "http://www.w3.org/Graphics/SVG/1.1/DTD/svg11.dtd">
<svg version="1.1" id="Layer_6" xmlns="http://www.w3.org/2000/svg" xmlns:xlink="http://www.w3.org/1999/xlink" x="0px" y="0px"
	 width="100px" height="100px" viewBox="0 0 100 100" enable-background="new 0 0 100 100" xml:space="preserve">
<g>
	<g>
		<path fill="#FFFFFF" d="M14.872,83.174c-0.256,0-0.512-0.098-0.707-0.293c-0.391-0.391-0.391-1.023,0-1.414l26.903-26.901
			c0.391-0.391,1.023-0.391,1.414,0l12.031,12.03l26.993-50.011c0.263-0.486,0.87-0.667,1.354-0.405
			c0.486,0.262,0.668,0.869,0.405,1.355L55.635,68.727c-0.15,0.278-0.423,0.469-0.735,0.515c-0.31,0.047-0.628-0.059-0.852-0.282
			L41.775,56.687L15.579,82.881C15.384,83.076,15.128,83.174,14.872,83.174L14.872,83.174z"/>
	</g>
	<g>
		<path fill="#FFFFFF" d="M85.127,36.937"/>
	</g>
	<g>
		<path fill="#FFFFFF" d="M85.126,37.937c-0.492,0-0.921-0.363-0.989-0.863l-2.569-18.628l-18.266,7.022
			c-0.513,0.197-1.094-0.06-1.292-0.575c-0.198-0.516,0.06-1.094,0.575-1.292l19.442-7.475c0.284-0.109,0.604-0.082,0.867,0.072
			c0.263,0.155,0.44,0.422,0.481,0.725L86.117,36.8c0.076,0.547-0.307,1.052-0.854,1.127C85.217,37.934,85.171,37.937,85.126,37.937
			L85.126,37.937z"/>
	</g>
</g>
</svg>
