<?xml version="1.0" encoding="utf-8"?>
<!-- Generator: Adobe Illustrator 14.0.0, SVG Export Plug-In . SVG Version: 6.00 Build 43363)  -->
<!DOCTYPE svg PUBLIC "-//W3C//DTD SVG 1.1//EN" "http://www.w3.org/Graphics/SVG/1.1/DTD/svg11.dtd">
<svg version="1.1" id="Layer_3" xmlns="http://www.w3.org/2000/svg" xmlns:xlink="http://www.w3.org/1999/xlink" x="0px" y="0px"
	 width="100px" height="100px" viewBox="0 0 100 100" enable-background="new 0 0 100 100" xml:space="preserve">
<g>
	<path fill="#FFFFFF" d="M29.545,84.708H15.909c-0.552,0-1-0.447-1-1V70.071c0-0.266,0.105-0.52,0.293-0.707l26.979-26.979V35.98
		c0-11.831,9.625-21.455,21.455-21.455c11.831,0,21.456,9.625,21.456,21.455c0,11.83-9.625,21.454-21.456,21.454H51v5.819
		c0,0.553-0.447,1-1,1h-5.819v5.817c0,0.553-0.448,1-1,1h-5.819v5.819c0,0.553-0.448,1-1,1h-5.817v5.817
		C30.545,84.261,30.097,84.708,29.545,84.708L29.545,84.708z M16.909,82.708h11.636v-5.817c0-0.553,0.448-1,1-1h5.817v-5.819
		c0-0.553,0.448-1,1-1h5.819v-5.817c0-0.553,0.448-1,1-1H49v-5.819c0-0.553,0.448-1,1-1h13.636c10.729,0,19.456-8.727,19.456-19.454
		c0-10.728-8.728-19.455-19.456-19.455c-10.728,0-19.455,8.728-19.455,19.455v6.818c0,0.265-0.105,0.52-0.293,0.707L16.909,70.485
		V82.708L16.909,82.708z M63.636,43.799c-4.312,0-7.819-3.507-7.819-7.818s3.508-7.818,7.819-7.818s7.819,3.507,7.819,7.818
		S67.947,43.799,63.636,43.799L63.636,43.799z M63.636,30.162c-3.209,0-5.819,2.61-5.819,5.818s2.61,5.818,5.819,5.818
		s5.819-2.61,5.819-5.818S66.845,30.162,63.636,30.162L63.636,30.162z"/>
</g>
</svg>
