<?xml version="1.0" encoding="utf-8"?>
<!-- Generator: Adobe Illustrator 14.0.0, SVG Export Plug-In . SVG Version: 6.00 Build 43363)  -->
<!DOCTYPE svg PUBLIC "-//W3C//DTD SVG 1.1//EN" "http://www.w3.org/Graphics/SVG/1.1/DTD/svg11.dtd">
<svg version="1.1" id="Layer_4" xmlns="http://www.w3.org/2000/svg" xmlns:xlink="http://www.w3.org/1999/xlink" x="0px" y="0px"
	 width="100px" height="100px" viewBox="0 0 100 100" enable-background="new 0 0 100 100" xml:space="preserve">
<g>
	<path fill="#FFFFFF" d="M47.528,78.434c-0.238,0-0.478-0.085-0.668-0.257c-0.411-0.369-0.444-1.002-0.074-1.412
		c0.245-0.272,6.048-6.675,10.229-7.426c0.43-0.077,1.027-0.135,1.784-0.208c6.717-0.649,24.56-2.374,25.822-25.223
		c0.355-6.458-2.568-12.614-8.693-18.298c-0.036-0.029-7.79-6.394-15.773-5.856c-22.832,1.55-24.33,19.416-24.894,26.141
		c-0.063,0.758-0.114,1.356-0.186,1.787c-0.698,4.189-7.026,10.071-7.295,10.319c-0.406,0.377-1.038,0.349-1.413-0.056
		c-0.375-0.406-0.35-1.039,0.056-1.413c1.692-1.564,6.192-6.262,6.679-9.18c0.058-0.35,0.105-0.912,0.165-1.625
		c0.546-6.505,2.206-26.303,26.752-27.969c8.783-0.587,16.889,6.066,17.229,6.35c6.62,6.143,9.759,12.83,9.368,19.91
		c-1.356,24.563-21.128,26.475-27.626,27.103c-0.711,0.069-1.273,0.123-1.623,0.187c-2.912,0.523-7.554,5.082-9.097,6.795
		C48.074,78.322,47.802,78.434,47.528,78.434L47.528,78.434z"/>
</g>
<g>
	<path fill="#FFFFFF" d="M39.912,82.507c-0.256,0-0.512-0.098-0.707-0.293L21.603,64.612c-0.391-0.391-0.391-1.023,0-1.414
		s1.023-0.391,1.414,0L40.619,80.8c0.391,0.391,0.391,1.023,0,1.414C40.423,82.409,40.167,82.507,39.912,82.507L39.912,82.507z"/>
</g>
<g>
	<path fill="#FFFFFF" d="M35.113,85.996c-0.256,0-0.512-0.098-0.707-0.293L16.804,68.103c-0.391-0.391-0.391-1.023,0-1.414
		s1.023-0.391,1.414,0L35.82,84.289c0.391,0.391,0.391,1.023,0,1.414C35.625,85.898,35.369,85.996,35.113,85.996L35.113,85.996z"/>
</g>
<g>
	<path fill="#FFFFFF" d="M27.741,88.751c-0.256,0-0.512-0.098-0.707-0.293L14.048,75.474c-0.391-0.391-0.391-1.023,0-1.414
		s1.023-0.391,1.414,0l12.985,12.984c0.391,0.391,0.391,1.023,0,1.414C28.252,88.653,27.997,88.751,27.741,88.751L27.741,88.751z"/>
</g>
<g>
	<path fill="#FFFFFF" d="M21.248,90.333c-0.256,0-0.512-0.098-0.707-0.293l-8.075-8.074c-0.391-0.391-0.391-1.023,0-1.414
		s1.023-0.391,1.414,0l8.075,8.074c0.391,0.391,0.391,1.023,0,1.414C21.76,90.235,21.504,90.333,21.248,90.333L21.248,90.333z"/>
</g>
</svg>
